<svg width="28" height="31" viewBox="0 0 28 31" fill="none" xmlns="http://www.w3.org/2000/svg">
<path d="M4.09246 26.6534H21.6088L20.7722 23.9447L22.7733 25.6621L24.6074 27.3057L27.9487 30.098V3.65586C27.8652 2.01221 26.45 0.615479 24.6958 0.615479L4.09861 0.619164C2.34563 0.619164 0.923096 2.01835 0.923096 3.662V23.6118C0.923096 25.3452 2.34317 26.6534 4.09246 26.6534ZM17.05 7.59669L17.0095 7.61143L17.0242 7.59669H17.05ZM7.67582 9.15558C9.92754 7.51684 12.0147 7.59546 12.0147 7.59546L12.183 7.7613C9.42757 8.41851 8.17825 9.64941 8.17825 9.64941C8.17825 9.64941 8.51238 9.48603 9.09589 9.23665C12.807 7.77727 16.8596 7.88292 20.6113 9.73049C20.6113 9.73049 19.3595 8.57944 16.7736 7.84238L17.0021 7.61757C17.3596 7.6188 19.2514 7.68514 21.2759 9.1654C21.2759 9.1654 23.5411 13.035 23.5411 17.789C23.4662 17.6981 22.1358 19.8356 18.7121 19.9093C18.7121 19.9093 18.1323 19.2533 17.7195 18.6809C19.7219 18.106 20.4712 16.9562 20.4712 16.9562C19.814 17.3701 19.2145 17.6158 18.7281 17.8615C17.98 18.1907 17.2306 18.3529 16.4825 18.5187C12.9397 19.0936 10.9508 18.1318 9.07132 17.3689L8.42885 17.0421C8.42885 17.0421 9.17697 18.192 11.0995 18.7669C10.5946 19.343 10.0946 19.9978 10.0946 19.9978C6.67218 19.9167 5.42409 17.7792 5.42409 17.7792C5.42409 13.0178 7.67582 9.15558 7.67582 9.15558Z" fill="white"/>
<path d="M17.2711 16.3039C18.1445 16.3039 18.8558 15.5668 18.8558 14.6578C18.8558 13.7549 18.1482 13.0178 17.2711 13.0178V13.0215C16.4014 13.0215 15.6889 13.7561 15.6864 14.6652C15.6864 15.5668 16.3977 16.3039 17.2711 16.3039Z" fill="white"/>
<path d="M11.5981 16.3039C12.4715 16.3039 13.1828 15.5668 13.1828 14.6578C13.1828 13.7549 12.4764 13.0178 11.603 13.0178L11.5981 13.0215C10.7247 13.0215 10.0134 13.7561 10.0134 14.6652C10.0134 15.5668 10.7247 16.3039 11.5981 16.3039Z" fill="white"/>
</svg>
