<svg width="28" height="24" viewBox="0 0 28 24" fill="none" xmlns="http://www.w3.org/2000/svg">
<path d="M27.7292 3.02374C26.7015 3.50288 25.6118 3.81767 24.496 3.95771C25.6736 3.21578 26.5555 2.04803 26.9775 0.671769C25.8718 1.36426 24.6618 1.85193 23.3999 2.11363C22.5519 1.15758 21.4282 0.523595 20.2033 0.310195C18.9784 0.0967952 17.7209 0.315932 16.6263 0.933552C15.5316 1.55117 14.6612 2.53268 14.1502 3.72555C13.6391 4.91842 13.5162 6.25584 13.8004 7.52997C11.5594 7.41207 9.36686 6.79869 7.36523 5.72963C5.3636 4.66057 3.59757 3.15973 2.18175 1.32452C1.46168 2.63227 1.24108 4.18005 1.56481 5.65315C1.88853 7.12625 2.73227 8.41406 3.92447 9.25475C3.03011 9.2249 2.15546 8.97013 1.37344 8.51166V8.58495C1.37406 9.9574 1.82523 11.2873 2.65035 12.3489C3.47547 13.4105 4.62367 14.1382 5.89998 14.4086C5.07011 14.6456 4.19999 14.6806 3.35542 14.5109C3.71419 15.6902 4.41338 16.7219 5.35533 17.462C6.29727 18.202 7.43494 18.6134 8.60943 18.6388C6.24867 20.5919 3.24868 21.4766 0.269287 21.0981C2.84478 22.8446 5.84301 23.7718 8.90527 23.7688C11.0147 23.7842 13.106 23.3575 15.0577 22.5136C17.0094 21.6696 18.7826 20.4253 20.2742 18.8527C21.7658 17.2801 22.9462 15.4108 23.7467 13.3532C24.5472 11.2956 24.9519 9.09086 24.9373 6.86699C24.9373 6.61134 24.9373 6.35569 24.9195 6.10004C26.022 5.26157 26.974 4.22275 27.7308 3.03226L27.7292 3.02374Z" fill="white"/>
</svg>
