<svg width="274" height="58" viewBox="0 0 274 58" fill="none" xmlns="http://www.w3.org/2000/svg">
<path d="M23.0342 57.9296C17.8564 54.9234 13.0107 52.0842 8.16486 49.245C6.273 48.1427 4.34795 47.007 2.4561 45.8714C0.796571 44.8693 0 43.4664 0 41.4622C0.066381 36.8526 0.066381 32.2431 0 27.6336C0 25.5961 0.862952 24.1597 2.58886 23.1576C7.06957 20.5523 11.5503 17.9469 16.031 15.3081C16.7612 14.8739 17.2923 14.8739 17.9893 15.3081C19.3832 16.1766 20.8104 16.9782 22.3704 17.88C19.2505 19.7172 16.2634 21.4875 13.243 23.2245C11.1189 24.4938 8.96143 25.7296 6.80405 26.9655C5.84152 27.5 5.37686 28.2348 5.41005 29.3705C5.44324 32.811 5.44324 36.2514 5.41005 39.7252C5.37686 40.9277 5.90791 41.6626 6.93681 42.2304C11.9154 45.103 16.8608 48.0425 21.8393 50.8817C22.8019 51.4162 23.1669 52.0174 23.1005 53.1197C22.9678 54.6227 23.0342 56.1259 23.0342 57.9296Z" fill="#FF3969"/>
<path d="M47.4957 12.0346C50.5159 13.1704 51.8104 15.2413 51.6444 18.5815C51.4453 22.7903 51.5781 27.0324 51.6113 31.2411C51.6113 33.1451 50.9142 34.5813 49.2879 35.55C42.5835 39.4915 35.8458 43.433 29.1413 47.3411C29.0418 47.3744 28.9422 47.3744 28.6102 47.3744C28.6102 45.5039 28.6102 43.6668 28.6102 41.7963C28.6102 41.028 29.3405 40.861 29.8383 40.5938C34.6841 37.7212 39.5631 34.8819 44.4421 32.0761C45.1059 31.6753 45.7697 31.3079 46.2012 30.6064C46.5995 30.1054 46.3672 29.5376 46.3672 29.0031C46.4003 23.8258 46.4003 18.6817 46.3672 13.5044C46.3008 12.6693 46.4335 12.0013 47.4957 12.0346Z" fill="white"/>
<path d="M0.0334168 20.5524C0.0334168 19.4836 0.0997974 18.6486 0.0334168 17.8135C-0.165726 15.3751 0.896369 13.7384 3.02056 12.5359C6.77109 10.4315 10.4884 8.22698 14.1726 5.98901C16.0644 4.85332 17.8899 4.81993 19.7818 5.9556C24.0965 8.4942 28.4445 11.0662 32.7925 13.5714C33.6554 14.0724 34.0537 14.6402 33.9873 15.6758C33.8877 17.2122 33.9541 18.7821 33.9541 20.5859C30.7678 18.7488 27.7474 17.0118 24.7271 15.2415C22.7689 14.1058 20.7774 13.0035 18.8856 11.7676C17.558 10.8992 16.4627 10.9325 15.1019 11.7676C10.3889 14.6402 5.60941 17.3792 0.829988 20.185C0.630846 20.2852 0.431702 20.3855 0.0334168 20.5524Z" fill="white"/>
<path d="M37.4724 13.0702C37.1072 12.2018 36.377 11.7342 35.6137 11.2999C30.6019 8.39392 25.6233 5.4545 20.6116 2.51508C24.329 -0.62475 26.0216 -0.724957 30.0045 1.68002C33.3568 3.71757 36.7422 5.65492 40.1276 7.65906C41.2892 8.36051 42.3181 9.16221 42.4841 10.6319C42.4841 16.7445 42.5173 22.8572 42.4841 28.9698C41.2228 30.1055 39.6629 30.807 38.1694 31.5752C37.4391 31.2078 37.7047 30.5064 37.7047 29.9385C37.6715 24.8279 37.7047 19.7173 37.6715 14.6401C37.7047 14.1391 37.9702 13.5378 37.4724 13.0702Z" fill="#FF3969"/>
<path d="M28.5766 57.9965C28.5766 55.8922 28.5766 54.1886 28.5766 52.4851C28.5766 51.9173 28.7426 51.5832 29.2404 51.2826C36.6087 46.9736 43.977 42.6648 51.5112 38.2556C51.5112 39.8924 51.5776 41.2953 51.4781 42.6981C51.4116 43.8673 50.8142 44.8359 49.8185 45.4372C42.8485 49.5791 35.8786 53.6876 28.5766 57.9965Z" fill="#FF3969"/>
<path d="M8.89479 34.4811C8.89479 34.3809 8.89479 34.2472 8.89479 34.147C8.89479 29.3371 8.89479 29.3705 13.2427 27.2328C14.1057 26.7985 14.2716 26.9989 14.2384 27.8674C14.2053 30.1388 14.3049 32.4435 14.2053 34.7149C14.1389 35.9174 14.6036 36.5186 15.5992 37.0531C17.7899 38.2221 19.8808 39.5583 22.0714 40.7941C22.7684 41.195 23.1335 41.6292 23.0671 42.4977C23.0008 43.9006 23.0339 45.2701 23.0671 46.673C23.0671 47.5414 22.8016 47.5748 22.1046 47.174C18.0222 44.769 13.9066 42.3641 9.79096 39.9925C9.16035 39.6251 8.8616 39.1574 8.89479 38.3892C8.92798 37.0531 8.89479 35.7504 8.89479 34.4811Z" fill="white"/>
<path d="M83.3185 24.84V42H87.1885V24.84H93.0085V21.33H77.4985V24.84H83.3185ZM110.526 30H102.246V21.33H98.4358V42H102.246V33.45H110.526V42H114.396V21.33H110.526V30ZM134.639 42V38.58H125.369V33.51H133.229V30.12H125.369V24.75H134.339V21.33H121.559V42H134.639ZM158.238 24.84C160.008 24.84 161.358 25.5 162.288 26.79C163.248 28.08 163.728 29.73 163.728 31.71C163.728 33.66 163.248 35.28 162.288 36.57C161.358 37.86 160.008 38.49 158.238 38.49H154.008V24.84H158.238ZM158.238 42C161.118 42 163.398 41.04 165.048 39.12C166.728 37.17 167.568 34.71 167.568 31.71C167.568 28.68 166.728 26.22 165.048 24.27C163.398 22.32 161.118 21.33 158.238 21.33H150.168V42H158.238ZM186.664 42V38.58H177.394V33.51H185.254V30.12H177.394V24.75H186.364V21.33H173.584V42H186.664ZM209.141 24.24C207.191 22.14 204.671 21.09 201.641 21.09C198.701 21.09 196.211 22.14 194.171 24.21C192.131 26.28 191.111 28.77 191.111 31.71C191.111 34.62 192.131 37.14 194.171 39.21C196.211 41.28 198.701 42.3 201.641 42.3C207.791 42.3 211.631 38.64 211.631 31.32H201.551V34.47H207.221C207.191 35.73 206.591 36.75 205.481 37.56C204.371 38.37 203.111 38.76 201.641 38.76C199.751 38.76 198.161 38.07 196.871 36.69C195.581 35.31 194.951 33.66 194.951 31.71C194.951 29.76 195.581 28.11 196.871 26.76C198.161 25.38 199.751 24.69 201.641 24.69C203.471 24.69 205.031 25.35 206.321 26.7L209.141 24.24ZM230.127 42V38.58H220.857V33.51H228.717V30.12H220.857V24.75H229.827V21.33H217.047V42H230.127ZM247.675 21.33V34.77L239.785 21.33H236.215V42H240.025V28.41L248.005 42H251.515V21.33H247.675ZM257.464 35.97C257.464 37.77 258.154 39.27 259.534 40.5C260.914 41.73 262.684 42.33 264.874 42.33C266.854 42.33 268.534 41.82 269.914 40.77C271.324 39.72 272.044 38.28 272.134 36.48C272.344 33.72 270.784 31.35 266.494 30.18L263.944 29.43C262.294 28.98 261.484 28.2 261.484 27.06C261.484 25.62 262.804 24.63 264.574 24.63C266.494 24.63 267.664 25.68 267.664 27.33H271.504C271.504 25.44 270.844 23.91 269.554 22.8C268.264 21.66 266.644 21.09 264.634 21.09C262.684 21.09 261.034 21.66 259.684 22.8C258.334 23.91 257.674 25.38 257.674 27.15C257.674 29.97 259.414 31.89 262.894 32.91L265.444 33.57C267.454 34.14 268.384 35.04 268.294 36.39C268.204 37.83 266.884 38.88 264.874 38.88C262.744 38.88 261.394 37.56 261.304 35.97H257.464Z" fill="white"/>
</svg>
